<svg width="1024" height="1024" viewBox="0 0 1024 1024" fill="none" xmlns="http://www.w3.org/2000/svg">
  <defs>
    <linearGradient id="bg" x1="145" y1="96" x2="890" y2="910" gradientUnits="userSpaceOnUse">
      <stop stop-color="#202724"/>
      <stop offset="0.45" stop-color="#121817"/>
      <stop offset="1" stop-color="#080B0C"/>
    </linearGradient>
    <radialGradient id="glow" cx="0" cy="0" r="1" gradientUnits="userSpaceOnUse" gradientTransform="translate(610 398) rotate(121) scale(630)">
      <stop stop-color="#1FEEE0" stop-opacity="0.42"/>
      <stop offset="0.46" stop-color="#159C93" stop-opacity="0.14"/>
      <stop offset="1" stop-color="#061010" stop-opacity="0"/>
    </radialGradient>
    <linearGradient id="sweep" x1="466" y1="522" x2="822" y2="288" gradientUnits="userSpaceOnUse">
      <stop stop-color="#FF8A1F" stop-opacity="0.95"/>
      <stop offset="0.64" stop-color="#FFB347" stop-opacity="0.48"/>
      <stop offset="1" stop-color="#FFDD88" stop-opacity="0"/>
    </linearGradient>
    <linearGradient id="coin" x1="628" y1="282" x2="780" y2="446" gradientUnits="userSpaceOnUse">
      <stop stop-color="#FFE3A5"/>
      <stop offset="0.42" stop-color="#FF9D27"/>
      <stop offset="1" stop-color="#C9580B"/>
    </linearGradient>
    <filter id="shadow" x="-20%" y="-20%" width="140%" height="140%">
      <feDropShadow dx="0" dy="26" stdDeviation="38" flood-color="#000000" flood-opacity="0.46"/>
    </filter>
    <clipPath id="round">
      <rect x="64" y="64" width="896" height="896" rx="202"/>
    </clipPath>
  </defs>

  <g clip-path="url(#round)" filter="url(#shadow)">
    <rect x="64" y="64" width="896" height="896" rx="202" fill="url(#bg)"/>
    <rect x="64" y="64" width="896" height="896" rx="202" fill="url(#glow)"/>

    <path d="M512 524 L820 284 A378 378 0 0 1 890 521 Z" fill="url(#sweep)" opacity="0.86"/>
    <path d="M512 524 L838 258" stroke="#FF9A26" stroke-width="28" stroke-linecap="round"/>
    <path d="M512 524 L838 258" stroke="#FFD073" stroke-width="8" stroke-linecap="round" opacity="0.8"/>

    <circle cx="512" cy="524" r="278" stroke="#74FFF2" stroke-width="13" opacity="0.25"/>
    <circle cx="512" cy="524" r="196" stroke="#74FFF2" stroke-width="12" opacity="0.35"/>
    <circle cx="512" cy="524" r="112" stroke="#74FFF2" stroke-width="12" opacity="0.48"/>
    <path d="M234 524H792" stroke="#74FFF2" stroke-width="10" stroke-linecap="round" opacity="0.18"/>
    <path d="M512 246V802" stroke="#74FFF2" stroke-width="10" stroke-linecap="round" opacity="0.16"/>

    <circle cx="512" cy="524" r="35" fill="#0B1112" stroke="#79FFF2" stroke-width="10"/>
    <circle cx="512" cy="524" r="13" fill="#FF8A1F"/>

    <circle cx="678" cy="350" r="92" fill="url(#coin)"/>
    <circle cx="678" cy="350" r="72" fill="#141718" fill-opacity="0.28" stroke="#FFF0C1" stroke-width="8" stroke-opacity="0.7"/>
    <path d="M646 303L626 396" stroke="#FFF1C3" stroke-width="18" stroke-linecap="round"/>
    <path d="M720 303L700 396" stroke="#FFF1C3" stroke-width="18" stroke-linecap="round"/>
    <path d="M622 333H734" stroke="#FFF1C3" stroke-width="18" stroke-linecap="round"/>
    <path d="M614 372H726" stroke="#FFF1C3" stroke-width="18" stroke-linecap="round"/>

    <circle cx="752" cy="588" r="22" fill="#17F2D9"/>
    <circle cx="752" cy="588" r="49" stroke="#17F2D9" stroke-width="7" opacity="0.28"/>
    <circle cx="326" cy="392" r="16" fill="#FF8A1F"/>
    <circle cx="326" cy="392" r="38" stroke="#FF8A1F" stroke-width="6" opacity="0.28"/>

    <rect x="88" y="88" width="848" height="848" rx="178" stroke="#FFFFFF" stroke-opacity="0.08" stroke-width="4"/>
  </g>
</svg>
